<svg version="1.1" xmlns="http://www.w3.org/2000/svg" xmlns:xlink="http://www.w3.org/1999/xlink" width="744" height="1054"><g transform="translate(25,40)"><g fill="none" fill-rule="nonzero" stroke="#000000" stroke-width="1" stroke-linecap="butt" stroke-linejoin="miter" stroke-miterlimit="10" stroke-dasharray="" stroke-dashoffset="0" font-family="none" font-weight="none" font-size="none" text-anchor="none" style="mix-blend-mode: normal"><rect x="0" y="0" width="57.17647" height="57.17647"/><rect x="57.17647" y="0" width="57.17647" height="57.17647"/><rect x="114.35294" y="0" width="57.17647" height="57.17647"/><rect x="171.52941" y="0" width="57.17647" height="57.17647"/><rect x="228.70588" y="0" width="57.17647" height="57.17647"/><rect x="285.88235" y="0" width="57.17647" height="57.17647"/><rect x="343.05882" y="0" width="57.17647" height="57.17647"/><rect x="400.23529" y="0" width="57.17647" height="57.17647"/><rect x="457.41176" y="0" width="57.17647" height="57.17647"/><rect x="514.58824" y="0" width="57.17647" height="57.17647"/><rect x="571.76471" y="0" width="57.17647" height="57.17647"/><rect x="628.94118" y="0" width="57.17647" height="57.17647"/><rect x="-2.52062" y="58.65824" transform="rotate(-1.69469)" width="57.17647" height="57.17647"/><rect x="53.21467" y="61.0485" transform="rotate(-2.39928)" width="57.17647" height="57.17647"/><rect x="118.068" y="50.5138" transform="rotate(2.64392)" width="57.17647" height="57.17647"/><rect x="169.55359" y="61.05704" transform="rotate(-1.17669)" width="57.17647" height="57.17647"/><rect x="227.64206" y="59.51923" transform="rotate(-0.76591)" width="57.17647" height="57.17647"/><rect x="283.1377" y="68.15835" transform="rotate(-1.8276)" width="57.17647" height="57.17647"/><rect x="340.22227" y="68.45052" transform="rotate(-1.6194)" width="57.17647" height="57.17647"/><rect x="401.35168" y="52.23716" transform="rotate(0.68459)" width="57.17647" height="57.17647"/><rect x="459.00907" y="47.68741" transform="rotate(1.11255)" width="57.17647" height="57.17647"/><rect x="515.65339" y="50.47622" transform="rotate(0.61525)" width="57.17647" height="57.17647"/><rect x="567.63461" y="80.67667" transform="rotate(-2.31917)" width="57.17647" height="57.17647"/><rect x="627.14652" y="67.97027" transform="rotate(-1.02482)" width="57.17647" height="57.17647"/><rect x="11.18294" y="110.75391" transform="rotate(4.64568)" width="57.17647" height="57.17647"/><rect x="66.88041" y="109.74593" transform="rotate(4.08465)" width="57.17647" height="57.17647"/><rect x="123.65145" y="105.40729" transform="rotate(3.94295)" width="57.17647" height="57.17647"/><rect x="175.0431" y="108.02522" transform="rotate(1.65768)" width="57.17647" height="57.17647"/><rect x="239.13604" y="92.39789" transform="rotate(4.4565)" width="57.17647" height="57.17647"/><rect x="273.00246" y="140.99941" transform="rotate(-4.7491)" width="57.17647" height="57.17647"/><rect x="338.89829" y="124.10062" transform="rotate(-1.53193)" width="57.17647" height="57.17647"/><rect x="404.79611" y="99.08654" transform="rotate(1.85564)" width="57.17647" height="57.17647"/><rect x="462.55998" y="95.55436" transform="rotate(2.27398)" width="57.17647" height="57.17647"/><rect x="516.57804" y="104.69452" transform="rotate(0.96641)" width="57.17647" height="57.17647"/><rect x="574.34463" y="102.49009" transform="rotate(1.17804)" width="57.17647" height="57.17647"/><rect x="637.12981" y="67.83913" transform="rotate(3.99948)" width="57.17647" height="57.17647"/><rect x="19.75741" y="165.75944" transform="rotate(5.89595)" width="57.17647" height="57.17647"/><rect x="81.18926" y="158.39456" transform="rotate(7.30079)" width="57.17647" height="57.17647"/><rect x="134.14919" y="154.69502" transform="rotate(5.91616)" width="57.17647" height="57.17647"/><rect x="154.21459" y="185.1777" transform="rotate(-4.8444)" width="57.17647" height="57.17647"/><rect x="248.36748" y="146.2735" transform="rotate(6.12067)" width="57.17647" height="57.17647"/><rect x="291.62564" y="159.43426" transform="rotate(1.71906)" width="57.17647" height="57.17647"/><rect x="349.72981" y="159.88007" transform="rotate(1.75367)" width="57.17647" height="57.17647"/><rect x="395.38205" y="182.05434" transform="rotate(-1.36005)" width="57.17647" height="57.17647"/><rect x="434.54321" y="219.40142" transform="rotate(-5.934)" width="57.17647" height="57.17647"/><rect x="503.0745" y="203.14264" transform="rotate(-3.19314)" width="57.17647" height="57.17647"/><rect x="554.48433" y="217.20188" transform="rotate(-4.34491)" width="57.17647" height="57.17647"/><rect x="647.43971" y="97.76673" transform="rotate(6.43939)" width="57.17647" height="57.17647"/><rect x="-19.58156" y="233.71234" transform="rotate(-4.28164)" width="57.17647" height="57.17647"/><rect x="73.48005" y="219.07502" transform="rotate(3.57096)" width="57.17647" height="57.17647"/><rect x="72.11673" y="246.78939" transform="rotate(-9.3141)" width="57.17647" height="57.17647"/><rect x="203.02875" y="204.76008" transform="rotate(7.06524)" width="57.17647" height="57.17647"/><rect x="254.30194" y="197.87238" transform="rotate(6.20415)" width="57.17647" height="57.17647"/><rect x="289.32988" y="227.26989" transform="rotate(0.78782)" width="57.17647" height="57.17647"/><rect x="295.56571" y="285.2631" transform="rotate(-9.77671)" width="57.17647" height="57.17647"/><rect x="428.8405" y="170.36222" transform="rotate(6.99782)" width="57.17647" height="57.17647"/><rect x="449.15431" y="244.73503" transform="rotate(-2.02215)" width="57.17647" height="57.17647"/><rect x="521.97696" y="209.59237" transform="rotate(1.69092)" width="57.17647" height="57.17647"/><rect x="588.28343" y="188.90986" transform="rotate(4.16801)" width="57.17647" height="57.17647"/><rect x="619.08754" y="253.271" transform="rotate(-1.85599)" width="57.17647" height="57.17647"/><rect x="-3.62752" y="289.44644" transform="rotate(-0.81395)" width="57.17647" height="57.17647"/><rect x="110.03041" y="270.72882" transform="rotate(9.73725)" width="57.17647" height="57.17647"/><rect x="94.46024" y="291.74273" transform="rotate(-3.39673)" width="57.17647" height="57.17647"/><rect x="222.97473" y="240.88054" transform="rotate(10.12682)" width="57.17647" height="57.17647"/><rect x="206.67229" y="303.1139" transform="rotate(-4.1316)" width="57.17647" height="57.17647"/><rect x="281.40291" y="287.58206" transform="rotate(-0.94032)" width="57.17647" height="57.17647"/><rect x="304.69852" y="325.36203" transform="rotate(-6.7181)" width="57.17647" height="57.17647"/><rect x="362.1245" y="331.65489" transform="rotate(-6.2802)" width="57.17647" height="57.17647"/><rect x="422.09175" y="337.103" transform="rotate(-5.88525)" width="57.17647" height="57.17647"/><rect x="436.49312" y="390.7129" transform="rotate(-12.23755)" width="57.17647" height="57.17647"/><rect x="610.83074" y="192.69307" transform="rotate(8.31016)" width="57.17647" height="57.17647"/><rect x="570.60039" y="387.63236" transform="rotate(-9.06609)" width="57.17647" height="57.17647"/><rect x="56.57714" y="330.94476" transform="rotate(8.66842)" width="57.17647" height="57.17647"/><rect x="132.05422" y="322.4275" transform="rotate(11.6321)" width="57.17647" height="57.17647"/><rect x="25.07496" y="361.49984" transform="rotate(-13.37037)" width="57.17647" height="57.17647"/><rect x="222.03806" y="312.34276" transform="rotate(8.10601)" width="57.17647" height="57.17647"/><rect x="259.06964" y="316.58979" transform="rotate(4.85076)" width="57.17647" height="57.17647"/><rect x="172.99806" y="417.48878" transform="rotate(-15.67553)" width="57.17647" height="57.17647"/><rect x="402.54082" y="271.50634" transform="rotate(10.22269)" width="57.17647" height="57.17647"/><rect x="298.72513" y="436.36428" transform="rotate(-13.60161)" width="57.17647" height="57.17647"/><rect x="396.78771" y="409.79602" transform="rotate(-8.59443)" width="57.17647" height="57.17647"/><rect x="474.68255" y="402.08674" transform="rotate(-5.90552)" width="57.17647" height="57.17647"/><rect x="568.63416" y="345.97289" transform="rotate(-0.45177)" width="57.17647" height="57.17647"/><rect x="707.26691" y="150.34396" transform="rotate(15.8406)" width="57.17647" height="57.17647"/><rect x="128.57125" y="363.15704" transform="rotate(18.18701)" width="57.17647" height="57.17647"/><rect x="143.78068" y="380.89833" transform="rotate(11.78917)" width="57.17647" height="57.17647"/><rect x="125.30828" y="395.01122" transform="rotate(1.38236)" width="57.17647" height="57.17647"/><rect x="267.39096" y="343.80372" transform="rotate(13.33993)" width="57.17647" height="57.17647"/><rect x="267.86937" y="377.01011" transform="rotate(5.59448)" width="57.17647" height="57.17647"/><rect x="343.0517" y="355.91118" transform="rotate(7.83916)" width="57.17647" height="57.17647"/><rect x="369.2737" y="375.97799" transform="rotate(3.36255)" width="57.17647" height="57.17647"/><rect x="414.64686" y="383.98985" transform="rotate(2.03682)" width="57.17647" height="57.17647"/><rect x="560.32387" y="229.72838" transform="rotate(17.24907)" width="57.17647" height="57.17647"/><rect x="556.32859" y="351.08326" transform="rotate(5.61062)" width="57.17647" height="57.17647"/><rect x="484.42785" y="504.32754" transform="rotate(-10.14692)" width="57.17647" height="57.17647"/><rect x="688.29023" y="286.8765" transform="rotate(9.21846)" width="57.17647" height="57.17647"/><rect x="81.3595" y="454.4894" transform="rotate(9.4709)" width="57.17647" height="57.17647"/><rect x="81.76583" y="454.71205" transform="rotate(2.84658)" width="57.17647" height="57.17647"/><rect x="33.9233" y="482.63014" transform="rotate(-9.34381)" width="57.17647" height="57.17647"/><rect x="290.24101" y="384.80927" transform="rotate(15.081)" width="57.17647" height="57.17647"/><rect x="249.46884" y="450.54281" transform="rotate(2.24871)" width="57.17647" height="57.17647"/><rect x="97.78641" y="542.2819" transform="rotate(-20.28576)" width="57.17647" height="57.17647"/><rect x="435.99277" y="370.13272" transform="rotate(11.78791)" width="57.17647" height="57.17647"/><rect x="545.15419" y="287.64832" transform="rotate(20.17949)" width="57.17647" height="57.17647"/><rect x="424.97353" y="484.48458" transform="rotate(-3.82624)" width="57.17647" height="57.17647"/><rect x="538.44934" y="417.52656" transform="rotate(3.21543)" width="57.17647" height="57.17647"/><rect x="397.11469" y="613.68305" transform="rotate(-17.70752)" width="57.17647" height="57.17647"/><rect x="717.44279" y="297.2825" transform="rotate(12.72977)" width="57.17647" height="57.17647"/><rect x="-150.36772" y="501.19771" transform="rotate(-15.93331)" width="57.17647" height="57.17647"/><rect x="1.29274" y="511.82536" transform="rotate(-6.17295)" width="57.17647" height="57.17647"/><rect x="-39.53594" y="536.74927" transform="rotate(-15.58848)" width="57.17647" height="57.17647"/><rect x="241.76494" y="481.6845" transform="rotate(7.51685)" width="57.17647" height="57.17647"/><rect x="281.54783" y="494.55906" transform="rotate(5.60594)" width="57.17647" height="57.17647"/><rect x="244.72795" y="530.86107" transform="rotate(-4.23594)" width="57.17647" height="57.17647"/><rect x="504.62052" y="352.06454" transform="rotate(19.9596)" width="57.17647" height="57.17647"/><rect x="387.67225" y="533.93566" transform="rotate(-1.46207)" width="57.17647" height="57.17647"/><rect x="368.82955" y="582.94515" transform="rotate(-9.00652)" width="57.17647" height="57.17647"/><rect x="325.34553" y="656.74677" transform="rotate(-17.24049)" width="57.17647" height="57.17647"/><rect x="525.5491" y="568.03682" transform="rotate(-4.45796)" width="57.17647" height="57.17647"/><rect x="440.89667" y="681.60914" transform="rotate(-17.24311)" width="57.17647" height="57.17647"/><rect x="135.63197" y="541.98092" transform="rotate(13.31254)" width="57.17647" height="57.17647"/><rect x="-219.52153" y="554.98966" transform="rotate(-26.31769)" width="57.17647" height="57.17647"/><rect x="-81.08528" y="597.25646" transform="rotate(-17.85693)" width="57.17647" height="57.17647"/><rect x="98.12643" y="588.01084" transform="rotate(-6.67112)" width="57.17647" height="57.17647"/><rect x="149.96038" y="595.79224" transform="rotate(-7.25312)" width="57.17647" height="57.17647"/><rect x="247.7947" y="582.79863" transform="rotate(-3.54258)" width="57.17647" height="57.17647"/><rect x="386.52778" y="544.28678" transform="rotate(4.40039)" width="57.17647" height="57.17647"/><rect x="335.17721" y="616.85217" transform="rotate(-5.90454)" width="57.17647" height="57.17647"/><rect x="610.08572" y="404.90058" transform="rotate(16.55502)" width="57.17647" height="57.17647"/><rect x="607.41702" y="468.46265" transform="rotate(9.59659)" width="57.17647" height="57.17647"/><rect x="454.20525" y="676.47593" transform="rotate(-10.16236)" width="57.17647" height="57.17647"/><rect x="706.85422" y="475.00179" transform="rotate(8.08646)" width="57.17647" height="57.17647"/><rect x="213.76772" y="592.23788" transform="rotate(19.11524)" width="57.17647" height="57.17647"/><rect x="-226.43561" y="600.60626" transform="rotate(-24.86327)" width="57.17647" height="57.17647"/><rect x="102.74089" y="644.06165" transform="rotate(-1.03142)" width="57.17647" height="57.17647"/><rect x="289.53476" y="573.70667" transform="rotate(10.85806)" width="57.17647" height="57.17647"/><rect x="-87.02043" y="683.57441" transform="rotate(-25.68638)" width="57.17647" height="57.17647"/><rect x="241.5684" y="660.9342" transform="rotate(-4.00255)" width="57.17647" height="57.17647"/><rect x="339.66293" y="628.68875" transform="rotate(-0.18425)" width="57.17647" height="57.17647"/><rect x="402.42256" y="626.61618" transform="rotate(0.24675)" width="57.17647" height="57.17647"/><rect x="628.95044" y="458.63713" transform="rotate(17.14578)" width="57.17647" height="57.17647"/><rect x="468.48355" y="657.3264" transform="rotate(-3.73798)" width="57.17647" height="57.17647"/><rect x="347.55052" y="778.67493" transform="rotate(-17.67501)" width="57.17647" height="57.17647"/><rect x="434.18177" y="777.55255" transform="rotate(-15.37944)" width="57.17647" height="57.17647"/><rect x="209.53728" y="644.85709" transform="rotate(17.12464)" width="57.17647" height="57.17647"/><rect x="424.64673" y="545.93436" transform="rotate(31.32813)" width="57.17647" height="57.17647"/><rect x="-76.45832" y="685.95282" transform="rotate(-15.08767)" width="57.17647" height="57.17647"/><rect x="488.87175" y="512.41497" transform="rotate(28.43084)" width="57.17647" height="57.17647"/><rect x="80.69149" y="733.60067" transform="rotate(-11.10854)" width="57.17647" height="57.17647"/><rect x="388.50182" y="643.7572" transform="rotate(8.24641)" width="57.17647" height="57.17647"/><rect x="382.27219" y="660.84753" transform="rotate(2.98834)" width="57.17647" height="57.17647"/><rect x="699.78289" y="398.07365" transform="rotate(29.10898)" width="57.17647" height="57.17647"/><rect x="240.08292" y="793.36885" transform="rotate(-16.13288)" width="57.17647" height="57.17647"/><rect x="72.16586" y="863.16343" transform="rotate(-30.9614)" width="57.17647" height="57.17647"/><rect x="804.37078" y="367.43022" transform="rotate(24.14668)" width="57.17647" height="57.17647"/><rect x="383.15596" y="847.2523" transform="rotate(-17.6537)" width="57.17647" height="57.17647"/><rect x="-372.82011" y="676.15277" transform="rotate(-28.14036)" width="57.17647" height="57.17647"/><rect x="-205.95987" y="734.98046" transform="rotate(-19.41145)" width="57.17647" height="57.17647"/><rect x="5.70345" y="743.52692" transform="rotate(-8.07855)" width="57.17647" height="57.17647"/><rect x="299.66811" y="703.21708" transform="rotate(9.69416)" width="57.17647" height="57.17647"/><rect x="285.74763" y="713.33459" transform="rotate(4.20342)" width="57.17647" height="57.17647"/><rect x="-131.86337" y="812.97436" transform="rotate(-28.93695)" width="57.17647" height="57.17647"/><rect x="-65.39029" y="818.02063" transform="rotate(-28.55319)" width="57.17647" height="57.17647"/><rect x="-108.38543" y="852.17473" transform="rotate(-33.90132)" width="57.17647" height="57.17647"/><rect x="-53.56705" y="889.13396" transform="rotate(-33.67118)" width="57.17647" height="57.17647"/><rect x="55.76444" y="911.81394" transform="rotate(-29.89165)" width="57.17647" height="57.17647"/><rect x="752.94899" y="545.37936" transform="rotate(15.41131)" width="57.17647" height="57.17647"/><rect x="455.57534" y="871.58016" transform="rotate(-11.70347)" width="57.17647" height="57.17647"/><rect x="-236.71296" y="790.96871" transform="rotate(-15.95096)" width="57.17647" height="57.17647"/><rect x="116.98068" y="800.55378" transform="rotate(4.24317)" width="57.17647" height="57.17647"/><rect x="-343.59354" y="766.86214" transform="rotate(-31.19214)" width="57.17647" height="57.17647"/><rect x="-171.78044" y="800.89363" transform="rotate(-23.7485)" width="57.17647" height="57.17647"/><rect x="483.45454" y="680.26452" transform="rotate(18.48732)" width="57.17647" height="57.17647"/><rect x="-56.86087" y="850.33607" transform="rotate(-22.82664)" width="57.17647" height="57.17647"/><rect x="268.86055" y="844.91389" transform="rotate(-4.88624)" width="57.17647" height="57.17647"/><rect x="787.81959" y="407.43869" transform="rotate(34.5595)" width="57.17647" height="57.17647"/><rect x="417.57316" y="829.9197" transform="rotate(-2.57315)" width="57.17647" height="57.17647"/><rect x="644.36911" y="684.47877" transform="rotate(9.56031)" width="57.17647" height="57.17647"/><rect x="55.08155" y="978.16987" transform="rotate(-31.44299)" width="57.17647" height="57.17647"/><rect x="871.85996" y="532.92335" transform="rotate(19.57931)" width="57.17647" height="57.17647"/><rect x="-554.13362" y="703.21569" transform="rotate(-37.62481)" width="57.17647" height="57.17647"/><rect x="-467.34274" y="759.91339" transform="rotate(-34.661)" width="57.17647" height="57.17647"/><rect x="217.13506" y="840.53702" transform="rotate(6.40016)" width="57.17647" height="57.17647"/><rect x="-435.37728" y="792.93269" transform="rotate(-39.12048)" width="57.17647" height="57.17647"/><rect x="-158.18023" y="876.76754" transform="rotate(-24.50001)" width="57.17647" height="57.17647"/><rect x="450.14322" y="799.95943" transform="rotate(10.71428)" width="57.17647" height="57.17647"/><rect x="626.13855" y="661.46107" transform="rotate(20.6406)" width="57.17647" height="57.17647"/><rect x="512.95307" y="790.74099" transform="rotate(7.35773)" width="57.17647" height="57.17647"/><rect x="12.97399" y="978.41168" transform="rotate(-26.26418)" width="57.17647" height="57.17647"/><rect x="56.5738" y="999.34536" transform="rotate(-26.93339)" width="57.17647" height="57.17647"/><rect x="45.07161" y="1030.02323" transform="rotate(-30.24707)" width="57.17647" height="57.17647"/><rect x="371.09818" y="989.70149" transform="rotate(-15.26274)" width="57.17647" height="57.17647"/><rect x="329.78496" y="833.35634" transform="rotate(20.85787)" width="57.17647" height="57.17647"/><rect x="-441.68891" y="828.6057" transform="rotate(-30.75519)" width="57.17647" height="57.17647"/><rect x="376.96475" y="829.61313" transform="rotate(16.67052)" width="57.17647" height="57.17647"/><rect x="727.17468" y="593.68863" transform="rotate(38.70934)" width="57.17647" height="57.17647"/><rect x="682.37105" y="638.35987" transform="rotate(31.63933)" width="57.17647" height="57.17647"/><rect x="-291.54282" y="926.48055" transform="rotate(-34.09883)" width="57.17647" height="57.17647"/><rect x="-105.96085" y="985.19267" transform="rotate(-25.88768)" width="57.17647" height="57.17647"/><rect x="914.91931" y="402.40142" transform="rotate(41.31337)" width="57.17647" height="57.17647"/><rect x="284.07486" y="979.57732" transform="rotate(-10.15355)" width="57.17647" height="57.17647"/><rect x="178.32742" y="1043.41547" transform="rotate(-19.12445)" width="57.17647" height="57.17647"/><rect x="-59.10282" y="1084.10275" transform="rotate(-34.47362)" width="57.17647" height="57.17647"/><rect x="1042.72828" y="350.54308" transform="rotate(35.40171)" width="57.17647" height="57.17647"/></g></g></svg>